<?xml version="1.0" encoding="UTF-8" standalone="no"?>
<svg
   xmlns:dc="http://purl.org/dc/elements/1.1/"
   xmlns:cc="http://creativecommons.org/ns#"
   xmlns:rdf="http://www.w3.org/1999/02/22-rdf-syntax-ns#"
   xmlns:svg="http://www.w3.org/2000/svg"
   xmlns="http://www.w3.org/2000/svg"
   xmlns:sodipodi="http://sodipodi.sourceforge.net/DTD/sodipodi-0.dtd"
   xmlns:inkscape="http://www.inkscape.org/namespaces/inkscape"
   version="1.0"
   width="1372px"
   height="1012px"
   viewBox="0 0 13720 10120"
   preserveAspectRatio="xMidYMid meet"
   id="svg4198"
   inkscape:version="0.91 r13725"
   sodipodi:docname="butterfly9.svg">
  <metadata
     id="metadata4252">
    <rdf:RDF>
      <cc:Work
         rdf:about="">
        <dc:format>image/svg+xml</dc:format>
        <dc:type
           rdf:resource="http://purl.org/dc/dcmitype/StillImage" />
        <dc:title />
      </cc:Work>
    </rdf:RDF>
  </metadata>
  <defs
     id="defs4250" />
  <sodipodi:namedview
     pagecolor="#ffffff"
     bordercolor="#666666"
     borderopacity="1"
     objecttolerance="10"
     gridtolerance="10"
     guidetolerance="10"
     inkscape:pageopacity="0"
     inkscape:pageshadow="2"
     inkscape:window-width="1366"
     inkscape:window-height="706"
     id="namedview4248"
     showgrid="false"
     inkscape:zoom="0.5523319"
     inkscape:cx="657.09434"
     inkscape:cy="486.90025"
     inkscape:window-x="-8"
     inkscape:window-y="-8"
     inkscape:window-maximized="1"
     inkscape:current-layer="svg4198" />
  <g
     id="layer1"
     fill="#606060"
     stroke="none">
    <path
       d="M10470 10024 c-268 -29 -423 -60 -675 -135 -82 -24 -282 -97 -340 -124 -82 -38 -322 -159 -335 -169 -8 -6 -35 -22 -60 -36 -38 -19 -153 -94 -260 -168 -80 -54 -196 -144 -275 -211 -91 -77 -382 -362 -445 -436 -228 -268 -378 -475 -548 -755 -36 -61 -198 -383 -217 -434 -24 -63 -30 -47 -39 108 -23 403 -78 676 -165 806 -93 141 -233 158 -333 41 -80 -94 -130 -227 -177 -471 -39 -204 -50 -276 -62 -407 -7 -73 -16 -133 -21 -133 -4 0 -8 7 -8 15 0 29 -170 351 -260 494 -153 242 -329 473 -495 648 -44 47 -83 91 -87 98 -16 27 -308 294 -423 386 -155 123 -379 283 -420 300 -6 2 -42 22 -80 45 -140 82 -218 124 -229 124 -7 0 -17 5 -23 11 -18 18 -191 92 -418 179 -42 16 -265 80 -365 104 -133 32 -319 64 -447 75 -150 14 -456 25 -497 17 -51 -10 -68 -45 -54 -111 6 -28 11 -129 12 -225 1 -193 -9 -250 -80 -465 -32 -98 -145 -402 -201 -545 -50 -127 -70 -182 -204 -565 -65 -188 -72 -207 -124 -380 -49 -164 -52 -175 -79 -300 -64 -286 -86 -459 -86 -675 0 -139 24 -353 48 -432 51 -167 85 -263 111 -321 17 -37 31 -70 31 -73 0 -6 206 -418 255 -509 97 -180 145 -278 145 -295 0 -23 -22 -36 -75 -45 -204 -32 -507 -152 -685 -270 -143 -96 -319 -283 -435 -463 -165 -256 -353 -707 -390 -933 -17 -110 -29 -288 -50 -748 -16 -366 -33 -528 -70 -669 -24 -90 -32 -106 -132 -253 -87 -128 -207 -428 -261 -649 -42 -175 -47 -208 -47 -337 l0 -131 31 -38 c28 -35 40 -41 140 -66 209 -53 373 -72 644 -72 201 0 273 4 405 22 88 13 176 27 195 32 19 5 78 19 130 30 52 12 115 28 140 35 25 8 83 26 130 40 143 43 327 114 508 196 96 44 177 79 180 79 4 0 18 9 32 20 14 11 31 20 39 20 8 0 22 6 30 14 9 7 61 37 116 66 55 29 112 61 127 71 14 11 29 19 31 19 9 0 310 192 392 250 17 12 82 57 145 102 63 44 138 100 167 124 28 24 54 44 58 44 3 0 35 24 70 53 35 28 103 84 151 122 48 39 131 108 185 155 54 47 144 125 201 175 117 102 745 726 860 855 41 47 122 137 179 201 233 260 454 525 664 797 l80 103 13 -63 c35 -168 80 -269 155 -345 l50 -52 -21 -53 c-11 -29 -38 -96 -60 -148 -36 -88 -52 -124 -103 -236 -11 -22 -19 -43 -19 -47 0 -3 -19 -45 -41 -94 -23 -48 -47 -104 -54 -123 -7 -19 -38 -90 -69 -157 -31 -67 -56 -124 -56 -127 0 -16 -326 -674 -377 -761 -16 -27 -32 -57 -36 -65 -3 -8 -32 -53 -64 -99 -57 -83 -59 -85 -113 -96 -81 -17 -137 -50 -216 -129 -80 -80 -94 -111 -94 -215 0 -60 2 -65 39 -102 34 -34 44 -39 85 -39 105 0 235 99 294 223 35 74 43 121 32 173 -8 35 -6 42 20 69 15 17 36 44 47 61 10 17 39 67 66 110 51 85 311 600 366 724 18 41 43 98 56 125 21 45 99 221 127 285 6 14 16 36 23 50 10 20 134 310 192 450 8 19 29 69 47 110 l32 74 64 3 c36 1 81 4 101 7 l37 4 28 -67 c15 -36 31 -70 36 -75 4 -6 8 -16 8 -22 0 -7 14 -43 31 -81 16 -37 38 -88 48 -113 11 -25 42 -97 70 -160 28 -63 51 -118 51 -122 0 -3 23 -54 50 -113 28 -59 50 -109 50 -111 0 -3 16 -40 36 -82 20 -42 64 -138 99 -212 185 -400 379 -761 449 -838 18 -20 21 -36 21 -100 0 -64 5 -87 28 -134 39 -79 97 -149 161 -193 45 -31 65 -38 120 -42 l66 -6 41 42 42 41 -5 83 c-4 72 -8 88 -37 130 -37 54 -132 137 -192 167 -21 11 -59 23 -83 26 -36 5 -51 14 -73 43 -88 110 -200 318 -433 807 -40 82 -80 169 -90 194 -10 25 -39 90 -65 145 -26 55 -78 174 -117 265 -38 91 -76 179 -83 195 -7 17 -27 62 -44 102 -17 39 -31 74 -31 77 0 3 -16 40 -35 82 -51 111 -53 120 -19 157 38 41 66 82 91 132 24 46 61 186 70 263 3 28 9 52 12 52 3 -1 29 -30 56 -66 61 -81 177 -224 385 -477 36 -43 76 -93 90 -111 14 -18 43 -52 66 -76 90 -99 213 -236 283 -318 107 -126 813 -828 966 -961 162 -142 394 -334 513 -426 85 -66 119 -91 282 -213 64 -47 216 -151 268 -183 15 -9 70 -44 122 -77 90 -58 264 -158 375 -216 28 -14 57 -30 65 -36 41 -26 349 -166 505 -228 407 -164 927 -262 1325 -249 176 6 232 12 435 49 148 27 240 54 269 81 18 15 29 41 38 84 30 152 -51 532 -172 808 -88 202 -103 229 -183 343 -50 71 -87 164 -106 267 -23 124 -50 448 -56 675 -8 290 -30 579 -54 715 -15 81 -95 309 -150 430 -16 33 -32 71 -36 85 -11 37 -104 211 -168 316 -155 257 -359 464 -562 573 -140 75 -328 148 -465 181 -52 12 -117 28 -145 35 -47 11 -50 13 -47 41 2 16 26 72 54 124 68 126 349 686 367 730 8 19 22 53 32 75 25 55 78 219 90 280 35 173 40 230 41 425 0 113 -5 243 -10 290 -20 160 -73 406 -133 615 -35 124 -255 777 -279 830 -5 11 -22 56 -39 100 -16 44 -55 148 -87 230 -91 240 -104 276 -129 350 -40 120 -72 237 -86 315 -15 78 -18 289 -6 350 21 106 21 130 -4 156 -23 25 -23 25 -199 23 -96 -1 -227 -8 -290 -15z m397 -101 c-23 -36 -23 -322 -2 -441 25 -135 85 -330 157 -507 15 -38 28 -74 28 -78 0 -4 8 -27 18 -50 10 -23 30 -73 45 -112 14 -38 44 -117 67 -174 22 -57 40 -108 40 -113 0 -6 7 -24 14 -41 18 -39 38 -96 121 -342 148 -442 203 -646 247 -920 17 -103 21 -176 22 -355 0 -253 -15 -358 -80 -558 -34 -104 -185 -443 -210 -473 -8 -8 -14 -19 -14 -24 0 -9 -40 -90 -76 -155 -75 -133 -206 -402 -211 -433 -11 -73 31 -121 127 -145 25 -7 86 -21 135 -33 139 -32 287 -87 455 -167 71 -34 210 -144 297 -235 86 -90 201 -249 266 -367 132 -238 258 -545 301 -732 20 -88 46 -457 61 -873 8 -206 39 -472 70 -597 24 -101 49 -153 122 -256 86 -122 207 -400 252 -577 5 -22 21 -84 35 -139 27 -107 42 -283 28 -330 -9 -34 -13 -35 -184 -71 -229 -48 -519 -62 -788 -39 -195 16 -247 25 -495 84 -122 30 -363 105 -460 145 -313 127 -545 241 -774 380 -9 6 -45 27 -81 48 -81 46 -78 45 -224 143 -202 135 -298 203 -409 289 -29 22 -62 47 -74 55 -34 23 -272 217 -338 275 -33 29 -116 102 -185 162 -256 222 -848 813 -1012 1010 -19 22 -55 63 -80 90 -40 42 -149 168 -299 344 -74 88 -329 407 -398 499 -35 47 -76 99 -91 115 -27 30 -28 33 -34 205 -4 96 -8 195 -10 220 -30 374 -30 387 -16 732 7 189 15 366 16 393 4 66 24 520 30 660 2 61 7 245 10 410 5 303 9 343 51 480 9 28 26 74 39 103 13 29 24 54 24 57 0 16 140 304 151 311 5 3 9 12 9 19 0 8 25 56 57 107 31 51 61 102 67 113 14 25 120 183 161 241 17 23 39 55 50 70 71 103 179 236 302 371 373 412 784 716 1253 926 19 8 62 27 95 42 233 105 686 215 967 235 143 10 360 12 355 3z m-7552 -58 c250 -36 357 -58 545 -112 94 -27 219 -68 265 -88 17 -7 41 -16 55 -20 27 -8 171 -70 258 -112 49 -23 147 -76 247 -133 22 -13 49 -28 60 -34 11 -6 41 -26 67 -44 26 -17 49 -32 52 -32 8 0 127 -83 207 -144 181 -139 278 -225 435 -381 300 -300 539 -606 717 -920 32 -55 61 -107 67 -115 20 -31 92 -177 104 -210 7 -19 28 -71 46 -115 50 -123 60 -201 50 -400 -9 -175 -16 -483 -25 -1065 -12 -749 -18 -910 -42 -1060 -3 -19 -7 -180 -10 -358 l-5 -323 -79 -102 c-319 -412 -464 -584 -830 -991 -345 -383 -759 -792 -1067 -1056 -68 -58 -138 -118 -155 -133 -46 -41 -371 -297 -422 -332 -24 -16 -87 -62 -142 -101 -133 -96 -292 -204 -299 -204 -3 0 -20 -10 -37 -22 -49 -35 -183 -115 -273 -163 -44 -24 -105 -58 -135 -75 -30 -17 -70 -38 -89 -47 -19 -8 -75 -34 -125 -58 -157 -74 -201 -94 -271 -121 -87 -33 -367 -126 -459 -153 -83 -25 -344 -76 -435 -87 -36 -4 -74 -9 -85 -11 -11 -2 -120 -6 -241 -10 -234 -6 -356 4 -579 48 -184 36 -177 32 -190 109 -7 41 27 274 55 375 74 263 196 547 283 658 129 162 159 352 197 1222 20 451 34 517 192 910 23 57 111 235 156 316 123 222 334 454 505 557 48 28 91 52 95 52 5 0 36 14 70 30 34 17 65 30 67 30 3 0 24 8 48 19 56 24 156 53 302 87 102 24 125 33 153 60 25 25 32 40 32 71 0 41 -26 117 -60 178 -56 99 -193 364 -249 480 -35 72 -73 150 -86 175 -56 110 -117 280 -153 425 -41 164 -58 412 -39 580 15 144 20 173 43 300 25 142 104 461 120 487 3 5 18 52 34 106 16 53 56 176 90 272 34 96 65 186 70 200 26 77 90 252 108 295 11 28 29 75 41 105 11 30 43 116 72 190 97 255 147 408 176 545 17 78 24 373 10 439 l-9 39 194 -6 c106 -4 242 -14 303 -22z m3658 -1394 c34 -13 92 -129 121 -243 31 -118 54 -273 67 -453 15 -197 21 -928 9 -1185 -5 -118 -12 -325 -15 -460 -4 -135 -9 -247 -10 -250 -4 -7 -15 -236 -25 -510 -10 -265 -6 -444 15 -670 21 -236 19 -468 -5 -626 -18 -124 -43 -218 -61 -239 -5 -5 -9 -15 -9 -23 0 -23 -59 -91 -104 -120 -37 -24 -50 -27 -133 -27 -86 0 -93 2 -135 31 -137 99 -199 454 -168 979 6 116 13 224 15 240 18 150 26 308 30 585 9 720 21 1289 30 1415 1 17 8 131 14 255 6 124 16 261 22 305 5 44 14 121 19 170 27 279 93 582 154 709 53 109 101 143 169 117z m-1303 -7019 c0 -44 -56 -147 -101 -186 -23 -19 -61 -42 -85 -50 -42 -14 -44 -14 -55 5 -6 12 -8 37 -4 62 13 73 152 196 223 197 17 0 22 -6 22 -28z m2434 13 c58 -28 143 -112 161 -160 24 -62 15 -95 -28 -95 -17 0 -46 9 -63 19 -92 56 -187 251 -123 251 12 0 36 -7 53 -15z"
       id="path4201"
       style="fill:#000000" />
  </g>
  <path
     style="fill:#ffffff;fill-opacity:1;stroke:#000000;stroke-width:3.62101126;stroke-linecap:square;stroke-miterlimit:4;stroke-dasharray:none;stroke-dashoffset:0;stroke-opacity:1"
     d="m 340.1652,921.89261 c -18.11118,-3.04571 -33.00362,-16.23499 -43.87346,-38.85591 -5.57411,-11.60011 -28.04459,-83.88496 -28.04459,-90.21607 0,-1.49155 7.12887,-6.96074 15.84192,-12.15378 29.97683,-17.86636 104.62542,-68.28823 135.34375,-91.41879 54.25188,-40.85106 87.04658,-68.48933 149.68567,-126.15 22.22493,-20.45854 43.029,-39.38193 46.23128,-42.05197 l 5.82231,-4.85461 1.3973,5.08781 c 2.58241,9.40298 1.1696,79.79999 -2.06421,102.85511 -13.68125,97.53878 -54.61816,177.97894 -117.01618,229.93439 -39.04213,32.50826 -95.29086,60.83425 -134.63867,67.80193 -11.99796,2.12459 -16.16263,2.12778 -28.68512,0.0219 l 0,-2e-5 z"
     id="area4"
     inkscape:connector-curvature="0"
     transform="scale(10,10)"
     inkscape:label="#path4704" />
  <path
     style="fill:#ffffff;fill-opacity:1;stroke:#000000;stroke-width:3.62101126;stroke-linecap:square;stroke-miterlimit:4;stroke-dasharray:none;stroke-dashoffset:0;stroke-opacity:1"
     d="m 249.54715,742.9701 c -7.39842,-18.49048 -9.18208,-29.7432 -8.93567,-56.37326 0.20966,-22.65792 0.97791,-29.13434 5.611,-47.30149 9.23045,-36.19411 23.25895,-67.83634 47.05117,-106.12707 11.00838,-17.71668 14.87663,-22.51945 19.26799,-23.92293 13.03096,-4.1647 83.74186,-10.91312 190.16599,-18.14884 29.87334,-2.03107 64.49926,-4.42577 76.94648,-5.32156 12.44723,-0.89578 22.81475,-1.45075 23.03892,-1.23325 1.93938,1.8816 -190.26057,159.94051 -218.19309,179.43481 -4.27177,2.98129 -12.60699,9.23456 -18.52273,13.89614 -15.36071,12.1042 -63.92434,46.5526 -77.8145,55.19737 -14.8873,9.26535 -29.8966,16.89452 -33.23758,16.89452 -1.41865,0 -3.83874,-3.1475 -5.37798,-6.99444 z"
     id="area3"
     inkscape:connector-curvature="0"
     transform="scale(10,10)"
     inkscape:label="#path4706" />
  <path
     style="fill:#ffffff;fill-opacity:1;stroke:#000000;stroke-width:3.62101126;stroke-linecap:square;stroke-miterlimit:4;stroke-dasharray:none;stroke-dashoffset:0;stroke-opacity:1"
     d="m 222.98451,456.69011 c -9.05849,-4.38455 -16.14564,-10.15472 -30.77859,-25.0591 -16.03372,-16.33113 -20.47897,-22.19487 -28.39006,-37.4494 -10.58827,-20.4168 -16.87258,-40.71242 -16.87258,-54.49114 0,-11.62769 2.41752,-13.84043 16.21145,-14.83819 26.49419,-1.91642 72.76154,10.36941 192.90194,51.22315 106.59604,36.24799 154.60063,51.96802 193.35733,63.31859 18.12573,5.30844 31.73378,10.06776 30.24011,10.57627 -5.0735,1.72725 -204.2033,9.45124 -290.58614,11.27147 l -54.31517,1.14451 -11.76829,-5.69616 z"
     id="area2"
     inkscape:connector-curvature="0"
     transform="scale(10,10)"
     inkscape:label="#path4708" />
  <path
     style="fill:#ffffff;fill-opacity:1;stroke:#000000;stroke-width:3.62101126;stroke-linecap:square;stroke-miterlimit:4;stroke-dasharray:none;stroke-dashoffset:0;stroke-opacity:1"
     d="M 530.77046,401.59315 C 471.77365,382.20526 416.32695,363.34053 327.99384,332.6021 261.14061,309.33829 183.98482,279.72331 163.97199,269.64502 c -10.87182,-5.47496 -13.23351,-7.54172 -16.23361,-14.20631 -5.36249,-11.91255 -4.70585,-29.724 1.75928,-47.7206 l 5.20326,-14.48404 -5.72147,-10.86304 c -3.14681,-5.97467 -11.84238,-19.01031 -19.32349,-28.96809 -24.69435,-32.8696 -33.168807,-49.86791 -27.97905,-56.121179 3.05666,-3.683046 43.62288,-3.706374 66.23977,-0.03809 54.57371,8.851429 131.49351,46.376319 198.09777,96.640899 66.04254,49.84065 138.13443,117.05595 198.23702,184.8275 37.37968,42.14922 40.01428,45.39006 36.80749,45.27714 -1.317,-0.0464 -32.94682,-10.1246 -70.2885,-22.39606 z"
     id="area1"
     inkscape:connector-curvature="0"
     transform="scale(10,10)"
     inkscape:label="#path4710" />
  <path
     style="fill:#ffffff;fill-opacity:1;stroke:#000000;stroke-width:3.62101126;stroke-linecap:square;stroke-miterlimit:4;stroke-dasharray:none;stroke-dashoffset:0;stroke-opacity:1"
     d="m 766.41826,426.33666 c 62.92415,-75.12588 144.04534,-155.83575 207.16387,-206.11347 76.25057,-60.73815 143.00817,-97.58998 206.75807,-114.13543 21.6187,-5.61087 28.4863,-6.572021 52.9064,-7.404486 26.1115,-0.890122 28.3699,-0.706384 32.4779,2.642316 l 4.4151,3.59897 -3.1879,8.34753 c -1.7534,4.59114 -8.2212,15.68102 -14.3729,24.64418 -6.1517,8.96317 -17.0917,24.90536 -24.3111,35.4271 -8.3839,12.21905 -13.1231,20.90301 -13.1177,24.03683 0.01,2.69852 2.0221,9.79476 4.4833,15.76943 3.5166,8.53689 4.4841,14.10562 4.5178,26.00582 0.062,21.71605 -3.3502,27.21668 -22.5245,36.31474 -39.7232,18.84824 -191.7016,73.45492 -349.99276,125.75425 -47.07732,15.55434 -86.10683,28.28061 -86.73225,28.28061 -0.62541,0 0.0571,-1.42578 1.51667,-3.16839 z"
     id="area5"
     inkscape:connector-curvature="0"
     transform="scale(10,10)"
     inkscape:label="#path4712" />
  <path
     style="fill:#ffffff;fill-opacity:1;stroke:#000000;stroke-width:3.62101126;stroke-linecap:square;stroke-miterlimit:4;stroke-dasharray:none;stroke-dashoffset:0;stroke-opacity:1"
     d="m 1034.091,464.53254 c -58.00161,-1.97824 -133.51753,-4.88464 -183.7663,-7.07266 -32.86068,-1.43087 -61.7835,-2.65909 -64.27295,-2.72938 -2.48944,-0.0703 2.39892,-2.13556 10.86303,-4.5895 46.66717,-13.52986 97.81945,-29.9562 183.76632,-59.01218 157.1619,-53.13158 186.0093,-61.20158 218.7736,-61.20158 22.2881,0 23.8498,1.26848 22.1556,17.99652 -1.6452,16.24436 -9.8131,39.06417 -20.328,56.79306 -11.8399,19.96299 -39.0813,47.66509 -54.4357,55.35614 l -11.264,5.6422 -43.9564,-0.35974 c -24.176,-0.19786 -50.0668,-0.56815 -57.5352,-0.82288 z"
     id="area6"
     inkscape:connector-curvature="0"
     transform="scale(10,10)"
     inkscape:label="#path4714" />
  <path
     style="fill:#ffffff;fill-opacity:1;stroke:#000000;stroke-width:3.62101126;stroke-linecap:square;stroke-miterlimit:4;stroke-dasharray:none;stroke-dashoffset:0;stroke-opacity:1"
     d="M 1096.3004,746.48755 C 1047.5634,719.91793 912.80067,615.79787 781.08342,502.94535 l -14.92611,-12.78837 5.87358,-0.52574 c 8.40241,-0.7521 183.6638,11.4973 226.75527,15.84842 19.91554,2.01095 41.82644,4.62944 48.69094,5.81886 l 12.4808,2.16259 9.4692,14.60027 c 29.7264,45.83427 48.3991,89.22965 56.1698,130.53831 4.5494,24.18441 2.9666,59.95839 -3.5416,80.04919 -5.8021,17.91115 -6.7497,18.19956 -25.7549,7.83867 z"
     id="area7"
     inkscape:connector-curvature="0"
     transform="scale(10,10)"
     inkscape:label="#path4716" />
  <path
     style="fill:#ffffff;fill-opacity:1;stroke:#000000;stroke-width:3.62101126;stroke-linecap:square;stroke-miterlimit:4;stroke-dasharray:none;stroke-dashoffset:0;stroke-opacity:1"
     d="m 1001.5019,923.6241 c -25.7214,-4.43456 -62.49532,-21.09431 -96.15418,-43.56087 -27.94381,-18.6519 -60.03537,-50.10484 -80.39775,-78.79782 -17.27253,-24.33902 -42.82626,-75.37544 -51.97502,-103.80554 -16.55007,-51.4299 -23.06684,-88.53938 -24.44243,-139.18635 -0.8856,-32.60617 -0.68378,-36.70829 1.73702,-35.30486 1.50647,0.87336 21.37626,18.78629 44.15508,39.80651 104.5208,96.45145 173.76249,149.79765 282.66588,217.77556 13.1941,8.23577 23.9892,15.60297 23.9892,16.37155 0,1.62094 -20.148,65.98328 -24.3403,77.75417 -7.167,20.12361 -22.6329,39.55629 -36.3116,45.62492 -9.2105,4.08628 -26.1235,5.52998 -38.9259,3.32273 z"
     id="area8"
     inkscape:connector-curvature="0"
     transform="scale(10,10)"
     inkscape:label="#path4718" />
  <path
     style="fill:#ffffff;fill-opacity:1;stroke:none;stroke-width:3.62101126;stroke-linecap:square;stroke-miterlimit:4;stroke-dasharray:none;stroke-dashoffset:0;stroke-opacity:1"
     d="m 556.86221,143.6426 c -7.46577,-4.55257 -13.41821,-12.37847 -13.41821,-17.6414 0,-5.06862 2.14216,-5.3604 9.11485,-1.24153 4.29961,2.53984 14.42172,17.41493 14.42172,21.19364 0,2.12231 -4.55422,1.08228 -10.11836,-2.31071 z"
     id="path4722"
     inkscape:connector-curvature="0"
     transform="scale(10,10)" />
  <path
     style="fill:#ffffff;fill-opacity:1;stroke:none;stroke-width:3.62101126;stroke-linecap:square;stroke-miterlimit:4;stroke-dasharray:none;stroke-dashoffset:0;stroke-opacity:1"
     d="m 804.15681,144.2605 c 0,-4.68269 4.97946,-12.78662 10.93691,-17.79948 15.03829,-12.65389 15.86892,1.72763 0.86086,14.90488 -7.03603,6.17771 -11.79777,7.34602 -11.79777,2.8946 z"
     id="path4724"
     inkscape:connector-curvature="0"
     transform="scale(10,10)" />
  <path
     style="fill:#ffffff;fill-opacity:1;stroke:none;stroke-width:2;stroke-linecap:square;stroke-miterlimit:4;stroke-dasharray:none;stroke-dashoffset:0;stroke-opacity:1"
     d="m 686.50217,842.60709 c -8.39993,-8.39993 -15.85574,-36.90228 -20.70379,-79.14721 -4.20436,-36.63596 -6.30411,-80.87311 -7.47254,-157.43054 -0.59271,-38.83534 -2.24177,-87.63876 -3.66458,-108.45203 -5.08631,-74.40408 -1.75723,-109.5809 11.73773,-124.02731 4.65237,-4.98038 6.36529,-5.60214 15.43353,-5.60214 6.43685,0 11.88532,1.10403 14.7672,2.99232 14.91522,9.77282 19.9681,47.19624 15.241,112.88003 -1.11812,15.53644 -1.14334,38.29466 -0.0692,62.46245 4.97732,111.99018 6.07146,170.58929 3.95663,211.90548 -1.17018,22.86091 -2.99237,45.63894 -4.04932,50.61783 -4.84972,22.84514 -12.35705,38.92587 -18.17264,38.92587 -1.03359,0 -4.18539,-2.30613 -7.004,-5.12475 z"
     id="path4734"
     inkscape:connector-curvature="0"
     transform="scale(10,10)" />
  <path
     style="fill:#ff0000;fill-opacity:1;stroke:#000000;stroke-width:3.62101126;stroke-linecap:square;stroke-miterlimit:4;stroke-dasharray:none;stroke-dashoffset:0;stroke-opacity:1"
     d="m 965.29181,654.913 c -1.25728,-1.51493 -1.45332,-2.71576 -0.44338,-2.71576 0.99578,0 2.82476,1.22209 4.06439,2.71576 1.25727,1.51492 1.45332,2.71576 0.44337,2.71576 -0.99577,0 -2.82475,-1.2221 -4.06438,-2.71576 z"
     id="path4157"
     inkscape:connector-curvature="0"
     transform="scale(10,10)" />
  <path
     style="fill:#ffffff;fill-opacity:1;stroke:#000000;stroke-width:3.62101126;stroke-linecap:square;stroke-miterlimit:4;stroke-dasharray:none;stroke-dashoffset:0;stroke-opacity:1"
     d="m 283.06773,963.94489 c -0.17942,-28.28669 -1.17058,-32.07775 -24.69251,-94.44568 -35.29464,-93.58308 -49.04598,-142.97709 -51.42425,-184.71287 -2.28141,-40.03604 5.0248,-65.52949 36.76788,-128.29375 12.26846,-24.2579 22.30628,-45.89613 22.30628,-48.08498 0,-7.54985 -4.26861,-10.29848 -24.5324,-15.79681 -26.76662,-7.26277 -50.21311,-17.83033 -63.60825,-28.66883 -21.92072,-17.73687 -43.69586,-50.36573 -58.39199,-87.49719 -9.68095,-24.46004 -12.65218,-38.37053 -14.55446,-68.14004 -0.98991,-15.49152 -2.68352,-42.01677 -3.76357,-58.945 C 98.15928,202.10122 94.485937,185.32582 84.199809,171.84001 69.136078,152.09044 50.574965,96.826979 50.574965,71.726115 c 0,-9.661243 0.454243,-9.902901 26.938627,-14.331406 25.624658,-4.284749 78.286468,-2.917547 104.323028,2.708426 38.40828,8.299251 90.05899,28.481111 127.90942,49.978985 41.05953,23.32055 97.28724,64.17943 139.06305,101.0527 55.45883,48.95054 132.5052,132.46355 181.58029,196.82067 l 10.41041,13.65221 0.002,29.74838 c 8.4e-4,16.36161 0.77414,38.30302 1.71846,48.75869 0.94433,10.45567 2.64129,65.24081 3.77101,121.74477 l 2.05406,102.73446 -3.9198,11.77902 c -13.44436,40.40035 -51.39033,96.08143 -95.0141,139.42166 -70.76418,70.30421 -152.35546,107.1438 -248.08095,112.01196 l -18.10506,0.92075 -0.15715,-24.7825 -5e-5,0 z m 96.2755,-41.89807 c 37.49939,-8.99081 88.55282,-35.59952 124.41191,-64.84266 43.21962,-35.24566 79.66634,-90.38412 99.99293,-151.27441 16.21762,-48.58148 22.73298,-92.88086 22.38721,-152.21536 -0.1841,-31.59104 -1.16898,-40.02083 -4.67574,-40.02083 -1.08745,0 -25.49256,21.25264 -54.23354,47.22807 -113.84479,102.89029 -141.8977,124.28384 -291.24309,222.10618 -5.6124,3.67616 -9.27256,7.46609 -9.63151,9.97303 -0.73568,5.13782 19.99465,73.43756 26.93685,88.74829 17.39179,38.35675 43.38413,50.5284 86.05498,40.29769 z M 271.56631,745.38306 c 38.04644,-19.15988 141.0358,-97.25254 270.56093,-205.15538 65.42598,-54.5041 69.09371,-58.21797 57.49465,-58.21797 -8.82323,0 -159.40108,10.83463 -202.3351,14.55875 -46.23988,4.01088 -80.19206,8.23635 -87.01073,10.82881 -4.87605,1.85387 -21.62165,26.48037 -35.67474,52.46418 -10.88279,20.12202 -23.26884,50.71346 -29.68844,73.32548 -4.8716,17.15937 -5.14008,19.99644 -5.14008,54.31517 0,37.27389 1.6573,48.00237 9.29939,60.19931 3.49105,5.57179 7.6846,5.13959 22.49412,-2.31835 z m 39.72146,-282.41893 c 115.62604,-2.43254 267.86083,-9.1043 270.61642,-11.85989 2.77795,-2.77795 -1.01133,-4.5326 -27.10341,-12.55054 -12.94512,-3.97793 -83.82641,-27.1861 -157.51399,-51.57368 -179.44472,-59.38889 -200.29015,-65.15217 -231.43913,-63.98741 -20.49705,0.76644 -21.84162,2.16732 -20.55762,21.41868 1.09697,16.44708 8.88476,38.94352 20.10214,58.06861 11.06191,18.86004 39.67086,47.53706 56.29156,56.42548 12.23472,6.54288 13.14138,6.74058 27.14159,5.91856 7.96622,-0.46774 36.07432,-1.30465 62.46244,-1.85981 z m 293.30191,-39.57879 c 0,-5.63589 -59.23887,-70.89109 -107.07562,-117.95026 C 394.48507,204.08079 313.08077,145.73352 227.63579,111.99736 190.95469,97.514594 175.79752,94.33871 138.21425,93.260853 101.95859,92.221069 97.647118,93.087702 97.649539,101.41461 c 0.0023,7.98934 9.278671,25.14007 26.650131,49.27258 8.95997,12.44722 18.83424,27.15076 21.94282,32.67451 l 5.65196,10.0432 -3.56193,9.37424 c -5.84875,15.39266 -7.97658,32.46366 -5.52089,44.29263 3.77815,18.19926 8.0719,21.19391 59.84581,41.73891 66.34512,26.32719 176.26354,65.00294 312.31221,109.88978 39.83113,13.14157 74.45704,24.56964 76.94649,25.39574 7.10754,2.35853 12.67354,2.04634 12.67354,-0.71086 z"
     id="area12"
     inkscape:connector-curvature="0"
     transform="scale(10,10)"
     inkscape:label="#path4183" />
  <path
     style="fill:#ffffff;fill-opacity:1;stroke:#000000;stroke-width:3.62101126;stroke-linecap:square;stroke-miterlimit:4;stroke-dasharray:none;stroke-dashoffset:0;stroke-opacity:1"
     d="m 687.14244,843.54492 c -8.79396,-8.79395 -16.65475,-38.76986 -21.69155,-82.71734 -3.3759,-29.45568 -6.00366,-88.05288 -8.36268,-186.48208 -0.96655,-40.32901 -2.68541,-86.76848 -3.81969,-103.19882 -3.43907,-49.81614 1.76011,-86.15529 14.09074,-98.48592 4.00231,-4.00231 6.30926,-4.7129 15.30048,-4.7129 9.01394,0 11.40249,0.74002 16.07031,4.97889 3.04705,2.76704 7.28236,9.80474 9.53372,15.84192 3.985,10.68607 4.05099,12.264 4.05099,96.86205 0,47.29946 1.12465,111.25557 2.49922,142.12469 2.92799,65.75471 1.83155,148.25907 -2.32373,174.85541 -4.03532,25.82853 -12.27382,45.12102 -19.26809,45.12102 -1.04104,0 -3.77692,-1.88412 -6.07972,-4.18692 z"
     id="area9"
     inkscape:connector-curvature="0"
     transform="scale(10,10)"
     inkscape:label="#path4185" />
  <path
     style="fill:#ffffff;fill-opacity:1;stroke:#000000;stroke-width:3.62101126;stroke-linecap:square;stroke-miterlimit:4;stroke-dasharray:none;stroke-dashoffset:0;stroke-opacity:1"
     d="M 1046.8084,990.63485 C 998.11832,985.9268 945.08732,967.26264 900.63503,939.18941 841.91124,902.10321 785.70292,838.72527 752.26627,771.89556 c -20.79866,-41.57022 -21.09596,-42.83146 -22.88066,-97.067 -0.85196,-25.89023 -2.46524,-65.81188 -3.58508,-88.71478 -2.55466,-52.24802 -2.66415,-93.08993 -0.35039,-130.69763 l 1.80321,-29.30931 20.44055,-25.91111 C 791.46936,344.70453 826.91156,305.15266 876.38142,256.58639 988.02361,146.9834 1091.9941,83.334535 1191.9653,63.391655 c 27.0272,-5.391555 80.9044,-5.820173 104.1421,-0.8285 22.8559,4.909636 22.5263,4.59899 21.2243,20.001524 -2.3198,27.443831 -15.1494,64.898951 -30.6368,89.442241 -3.9433,6.24907 -8.7018,15.39413 -10.5744,20.32236 -4.6223,12.16489 -8.3272,43.69777 -10.7423,91.43007 -3.2919,65.05815 -5.2109,73.8804 -25.242,116.04193 -11.7635,24.75989 -20.8228,38.87043 -34.7882,54.18532 -19.2595,21.12051 -38.0225,31.41149 -77.1613,42.3208 -19.8082,5.52125 -25.708,9.12419 -25.708,15.6998 0,2.24905 10.4294,25.17859 23.1763,50.95454 12.747,25.77596 25.3839,53.54473 28.082,61.70839 8.9702,27.14105 10.2856,63.17124 3.6473,99.9033 -5.3718,29.72454 -23.8104,88.80074 -43.5254,139.45296 -25.1161,64.52901 -30.0135,83.03702 -29.1583,110.19272 l 0.5783,18.36108 -11.7683,-0.25065 c -6.4725,-0.13778 -18.4885,-0.90047 -26.7022,-1.69469 z m -5.7386,-68.20125 c 14.7927,-6.63663 29.7251,-25.04346 37.6698,-46.43486 2.1773,-5.86245 8.8477,-26.23064 14.823,-45.26264 l 10.8643,-34.60367 -3.7967,-3.09247 c -2.0882,-1.70086 -16.1732,-11.00508 -31.3,-20.67604 C 959.474,702.13022 906.31044,660.76575 790.39486,555.33519 c -19.70654,-17.92401 -36.99183,-33.24425 -38.41174,-34.04497 -6.11317,-3.44736 -6.70437,0.36598 -5.67003,36.57254 1.20925,42.32888 4.6076,67.75285 13.9562,104.41023 9.03507,35.42798 17.15401,56.89782 34.53035,91.31256 19.63294,38.88409 32.62341,57.77043 57.44888,83.52283 35.43599,36.75905 72.5728,62.125 116.39355,79.50145 28.64876,11.36022 55.30903,13.50391 72.42773,5.82377 z m 78.5552,-171.22797 c 1.5101,-2.30474 4.4576,-10.6557 6.55,-18.55769 4.9773,-18.79699 5.4713,-60.10762 0.96,-80.27865 -8.2132,-36.7229 -28.8501,-84.05406 -53.5451,-122.80679 l -11.689,-18.34301 -10.9423,-1.86455 c -26.7676,-4.56117 -68.92022,-8.47961 -167.55106,-15.57526 -80.17863,-5.76818 -121.30387,-7.50979 -121.30387,-5.13713 0,2.85343 82.64893,72.27678 150.27196,126.22527 23.40079,18.66874 45.07772,36.33453 48.17097,39.2573 3.09324,2.92277 6.22021,5.31414 6.94879,5.31414 0.72858,0 11.23339,7.58421 23.34401,16.8538 63.6933,48.75156 110.0694,79.03597 121.1027,79.08227 3.1783,0.0127 5.9154,-1.47214 7.6829,-4.1697 z m 31.5711,-290.95644 c 40.2838,-26.03668 72.5865,-78.27954 72.5865,-117.39342 0,-13.96848 -1.3277,-14.73903 -25.3963,-14.73903 -34.0741,0 -46.2544,3.35407 -213.59044,58.81556 -64.22769,21.28747 -127.36907,41.95558 -140.31419,45.9291 -12.94511,3.97354 -31.88753,9.76724 -42.09425,12.8749 -19.47587,5.92988 -23.83817,9.947 -12.67354,11.67072 3.23628,0.49965 52.32361,2.60833 109.08296,4.68594 56.75935,2.07762 106.86506,4.00306 111.34606,4.27875 4.481,0.2757 35.518,0.64814 68.9712,0.82761 l 60.8239,0.32635 11.2581,-7.27648 z M 832.41972,410.21737 c 140.81523,-46.01362 312.47048,-107.0108 361.19578,-128.34984 10.3279,-4.52306 21.2933,-10.68287 24.3675,-13.68845 10.4001,-10.16804 11.8881,-32.7761 3.7762,-57.37594 -2.1673,-6.57271 -3.2852,-13.2859 -2.6403,-15.85555 0.6152,-2.45109 11.0845,-19.31917 23.2652,-37.48463 12.1807,-18.16546 24.1586,-37.3952 26.6174,-42.73277 l 4.4706,-9.70466 -5.3054,-4.56352 -5.3054,-4.563524 -30.855,0.95867 c -33.6101,1.044271 -46.4012,3.580674 -83.7387,16.604864 -90.7118,31.6424 -199.34912,112.18511 -312.66484,231.80687 -35.86304,37.85881 -73.4712,80.73627 -73.4872,83.78353 -0.007,1.24473 1.28173,2.26314 2.86282,2.26314 1.5811,0 31.9297,-9.49419 67.44134,-21.09819 z"
     id="area13"
     inkscape:connector-curvature="0"
     transform="scale(10,10)"
     inkscape:label="#path4195" />
  <path
     style="fill:#ffffff;fill-opacity:1;stroke:none;stroke-width:3.62101126;stroke-linecap:square;stroke-miterlimit:4;stroke-dasharray:none;stroke-dashoffset:0;stroke-opacity:1"
     d="m 803.7453,145.18354 c 0,-1.03545 1.60672,-5.03207 3.57049,-8.88139 6.56766,-12.87366 19.65122,-19.25812 18.60201,-9.07733 -0.82308,7.98659 -22.1725,25.27865 -22.1725,17.95872 z"
     id="area11"
     inkscape:connector-curvature="0"
     transform="scale(10,10)"
     inkscape:label="#path4197" />
  <path
     style="fill:#ffffff;fill-opacity:1;stroke:none;stroke-width:3.62101126;stroke-linecap:square;stroke-miterlimit:4;stroke-dasharray:none;stroke-dashoffset:0;stroke-opacity:1"
     d="m 555.51931,142.67731 c -7.48262,-5.08457 -12.48682,-12.00708 -12.48682,-17.2735 0,-7.70653 12.51214,-1.35754 18.9399,9.6106 7.54543,12.8753 5.24236,15.61015 -6.45308,7.6629 z"
     id="area10"
     inkscape:connector-curvature="0"
     transform="scale(10,10)"
     inkscape:label="#path4199" />
</svg>
